<?xml version="1.0" standalone="no"?>
<!DOCTYPE svg PUBLIC "-//W3C//DTD SVG 20010904//EN"
 "http://www.w3.org/TR/2001/REC-SVG-20010904/DTD/svg10.dtd">
<svg version="1.0" xmlns="http://www.w3.org/2000/svg"
 width="509.000000pt" height="509.000000pt" viewBox="0 0 509.000000 509.000000"
 preserveAspectRatio="xMidYMid meet">
<metadata>
Created by potrace 1.14, written by Peter Selinger 2001-2017
</metadata>
<g transform="translate(0.000000,509.000000) scale(0.100000,-0.100000)"
fill="#000000" stroke="none">
<path d="M950 4913 c-43 -14 -83 -37 -105 -58 -13 -14 -26 -25 -29 -25 -7 0
-81 -77 -140 -145 -28 -32 -61 -69 -73 -82 -13 -13 -22 -24 -22 -26 3 -6 -44
-77 -51 -77 -4 0 -10 -8 -14 -17 -3 -10 -15 -31 -25 -48 -57 -86 -151 -271
-151 -296 0 -10 -4 -19 -9 -19 -16 0 -32 -124 -21 -156 10 -28 65 -72 83 -66
4 1 7 -3 7 -8 0 -6 10 -15 23 -20 28 -13 55 -30 81 -52 11 -10 23 -18 28 -18
4 0 58 -33 120 -73 253 -165 285 -184 325 -190 17 -3 48 -17 71 -31 23 -14 44
-26 47 -26 6 0 165 -107 185 -125 8 -8 18 -14 22 -14 5 -1 34 -18 65 -38 32
-20 84 -52 116 -72 31 -20 85 -54 120 -76 34 -22 123 -78 197 -124 74 -46 142
-89 150 -96 8 -7 35 -23 60 -36 25 -13 47 -27 50 -30 3 -4 28 -19 55 -33 78
-42 85 -50 91 -97 3 -24 8 -51 10 -59 3 -8 8 -37 10 -65 2 -27 9 -69 15 -93 7
-23 9 -61 6 -85 -7 -47 10 -116 30 -124 8 -3 13 -22 13 -49 0 -49 7 -47 -110
-44 -68 1 -95 -12 -100 -50 -9 -61 21 -90 96 -94 33 -1 67 1 78 7 29 14 53
-15 40 -49 -11 -32 -22 -35 -134 -35 -91 0 -186 -25 -219 -57 -23 -22 -95
-128 -112 -164 -7 -16 -16 -28 -21 -28 -4 0 -8 -5 -8 -11 0 -6 -6 -16 -12 -23
-7 -8 -20 -24 -28 -36 -8 -12 -32 -45 -53 -73 -43 -60 -48 -66 -119 -166 -29
-40 -57 -81 -63 -89 -15 -24 -23 -34 -48 -67 -13 -16 -47 -66 -76 -110 -29
-44 -63 -90 -74 -102 -11 -13 -16 -23 -11 -23 5 0 4 -4 -2 -8 -15 -9 -118
-152 -127 -175 -3 -9 -11 -17 -17 -17 -5 0 -10 -6 -10 -13 0 -7 -8 -22 -19
-33 -10 -11 -24 -31 -31 -44 -7 -13 -17 -29 -22 -34 -33 -38 -115 -165 -111
-170 4 -3 2 -6 -3 -6 -6 0 -30 -30 -54 -68 -25 -37 -47 -69 -50 -72 -13 -13
-70 -90 -70 -95 0 -8 -44 -69 -52 -73 -5 -2 -8 -10 -8 -17 0 -7 -6 -16 -12
-18 -10 -4 -10 -6 0 -6 7 -1 11 -4 9 -8 -3 -5 77 -8 178 -7 158 0 185 2 200
17 9 9 13 17 8 17 -4 0 -1 6 8 13 13 11 66 83 94 128 6 10 44 65 85 123 41 58
112 159 157 223 45 65 89 126 97 136 9 9 16 19 16 22 0 5 99 145 110 155 3 3
10 12 15 21 36 57 111 165 117 167 5 2 8 7 8 12 0 13 111 177 160 237 6 7 15
24 22 38 6 14 15 25 19 25 4 0 11 10 15 22 8 26 73 116 97 137 10 7 17 19 17
26 0 23 28 25 33 2 3 -12 4 -356 1 -764 l-4 -742 23 -7 c30 -10 298 -11 304
-1 2 4 9 5 14 2 8 -6 15 46 9 70 -2 6 -2 235 0 510 3 729 3 741 -13 901 -2 18
0 40 3 50 6 16 11 14 43 -20 21 -21 37 -45 37 -52 0 -7 4 -14 8 -16 7 -2 46
-58 152 -218 30 -44 132 -189 149 -212 12 -14 21 -31 21 -37 0 -6 4 -11 8 -11
4 0 16 -15 27 -33 10 -17 23 -36 27 -42 5 -5 26 -35 48 -65 22 -30 43 -59 47
-65 5 -5 23 -33 41 -61 18 -28 41 -62 52 -74 11 -13 20 -26 20 -30 0 -4 11
-20 25 -36 14 -16 28 -37 31 -46 3 -10 10 -18 15 -18 5 0 9 -5 9 -11 0 -6 14
-28 30 -49 17 -21 30 -41 30 -44 0 -4 4 -12 10 -19 38 -47 61 -78 85 -117 15
-25 31 -47 34 -50 3 -3 31 -41 60 -85 98 -144 70 -130 269 -130 178 0 192 4
160 40 -29 33 -38 45 -38 53 0 5 -9 17 -20 27 -11 10 -20 22 -20 27 0 5 -5 14
-11 21 -25 29 -169 238 -169 246 0 5 -4 11 -8 13 -5 2 -37 46 -72 98 -35 52
-67 96 -72 98 -4 2 -8 8 -8 13 0 7 -92 148 -127 194 -5 6 -30 44 -58 85 -27
41 -54 78 -58 81 -5 4 -14 16 -20 27 -7 12 -30 47 -53 79 -22 32 -65 94 -95
138 -30 44 -57 82 -61 83 -5 2 -8 8 -8 14 0 6 -13 27 -30 48 -16 21 -30 41
-30 44 0 4 -9 16 -20 28 -10 12 -17 25 -14 30 3 4 1 8 -3 8 -10 0 -68 77 -91
120 -30 55 -98 132 -132 150 -51 26 -143 48 -230 54 -41 3 -76 5 -77 6 -7 1 2
266 9 270 4 3 9 15 10 26 2 10 11 30 21 44 16 23 23 24 114 25 69 1 106 6 127
17 41 23 93 10 171 -46 16 -11 39 -26 50 -32 44 -23 70 -39 75 -46 3 -4 27 -9
53 -12 37 -3 72 -20 167 -80 67 -42 125 -76 131 -76 5 0 9 -4 9 -9 0 -5 10
-13 23 -17 12 -4 24 -10 27 -14 3 -3 61 -39 130 -79 69 -41 142 -84 162 -97
21 -13 42 -24 48 -24 5 0 10 -4 10 -9 0 -5 10 -13 22 -17 13 -4 34 -15 48 -24
40 -28 492 -304 520 -318 14 -6 49 -30 78 -52 28 -22 52 -37 52 -34 0 2 10 -4
22 -16 12 -11 28 -20 35 -20 7 0 13 -3 13 -7 0 -17 126 -81 151 -78 36 6 91
40 134 82 25 24 45 48 45 52 0 5 7 11 15 15 8 3 15 13 15 21 0 9 7 23 15 31 8
9 15 24 15 35 0 10 4 19 10 19 10 0 29 61 37 118 3 19 0 32 -6 32 -6 0 -11 6
-11 13 0 14 -14 27 -87 79 -48 34 -62 45 -115 90 -12 10 -24 18 -27 18 -3 0
-17 10 -31 23 -14 12 -41 33 -60 47 -19 13 -37 27 -40 30 -3 4 -32 26 -65 51
-32 24 -66 51 -75 59 -19 18 -71 60 -113 92 -17 13 -67 52 -111 88 -45 36 -97
76 -115 90 -18 14 -40 32 -49 41 -10 9 -111 92 -227 184 -115 93 -226 182
-246 199 -19 17 -46 40 -60 51 -13 11 -37 38 -52 60 -27 39 -68 79 -172 165
-27 23 -63 53 -79 66 -16 14 -43 34 -60 47 -17 12 -38 27 -46 34 -8 7 -105 80
-215 162 -110 83 -204 154 -210 158 -5 5 -59 46 -120 93 -60 46 -115 89 -121
95 -6 5 -27 21 -47 35 -20 14 -37 28 -37 33 0 4 -5 7 -11 7 -6 0 -16 6 -23 13
-7 6 -28 23 -46 37 -47 36 -191 149 -215 168 -11 10 -31 24 -45 33 -14 9 -36
26 -50 38 -35 29 -40 33 -85 66 -22 17 -42 32 -45 36 -3 3 -43 34 -90 69 -161
120 -210 162 -210 181 0 9 -48 59 -56 59 -4 0 -23 15 -44 33 -68 59 -122 102
-151 120 -16 11 -29 23 -29 28 0 5 -5 9 -11 9 -12 0 -123 82 -154 114 -42 43
-111 94 -144 105 -19 6 -34 11 -35 10 -1 0 -8 -3 -16 -6z"/>
</g>
</svg>
