<svg width="51" height="53" viewBox="0 0 51 53" fill="none" xmlns="http://www.w3.org/2000/svg">
<g style="mix-blend-mode:difference">
<path d="M16.4164 8.40518C18.1556 -1.82022 32.8444 -1.82022 34.5836 8.40518V8.40518C35.1992 12.0243 37.9043 14.9326 41.4694 15.8083L42.4548 16.0503C53.3797 18.7336 53.3797 34.2664 42.4548 36.9497L41.4694 37.1917C37.9043 38.0674 35.1992 40.9757 34.5836 44.5948V44.5948C32.8444 54.8202 18.1556 54.8202 16.4164 44.5948V44.5948C15.8008 40.9757 13.0957 38.0674 9.53056 37.1917L8.54519 36.9497C-2.37972 34.2664 -2.37972 18.7336 8.54519 16.0503L9.53057 15.8083C13.0957 14.9326 15.8008 12.0243 16.4164 8.40518V8.40518Z" fill="#0064FA"/>
<path d="M16.4164 8.40518C18.1556 -1.82022 32.8444 -1.82022 34.5836 8.40518C35.1992 12.0243 37.9043 14.9326 41.4694 15.8083L42.4548 16.0503C53.3797 18.7336 53.3797 34.2664 42.4548 36.9497L41.4694 37.1917C37.9043 38.0674 35.1992 40.9757 34.5836 44.5948C32.8444 54.8202 18.1556 54.8202 16.4164 44.5948C15.8008 40.9757 13.0957 38.0674 9.53056 37.1917L8.54519 36.9497C-2.37972 34.2664 -2.37972 18.7336 8.5452 16.0503L9.53057 15.8083C13.0957 14.9326 15.8008 12.0243 16.4164 8.40518Z" fill="#0064FA"/>
</g>
</svg>
