<svg width="105" height="144" viewBox="0 0 105 144" fill="none" xmlns="http://www.w3.org/2000/svg">
<g style="mix-blend-mode:difference">
<path d="M52.5 0L53.8626 33.7861C54.4495 48.3379 70.5168 56.8462 82.883 49.1537L104.029 36L77.0734 57.016C67.3167 64.623 67.3167 79.377 77.0734 86.984L104.029 108L82.883 94.8463C70.5168 87.1538 54.4495 95.6621 53.8626 110.214L52.5 144L51.1374 110.214C50.5505 95.6621 34.4832 87.1538 22.117 94.8463L0.971489 108L27.9266 86.984C37.6833 79.377 37.6833 64.623 27.9266 57.016L0.971489 36L22.117 49.1537C34.4832 56.8462 50.5505 48.3379 51.1374 33.7861L52.5 0Z" fill="#CEFF41"/>
</g>
</svg>
