<svg width="37" height="144" viewBox="0 0 37 144" fill="none" xmlns="http://www.w3.org/2000/svg">
<g style="mix-blend-mode:difference">
<path d="M18.5 0L21.7713 59.1192C21.9072 61.5762 24.6021 63.0119 26.7171 61.7542L31.2448 59.062C34.7368 56.9855 38.1384 61.8635 34.983 64.4226L28.7776 69.4554C27.1608 70.7666 27.1608 73.2334 28.7775 74.5446L34.983 79.5774C38.1384 82.1365 34.7368 87.0145 31.2448 84.938L26.7171 82.2458C24.6021 80.9881 21.9072 82.4238 21.7713 84.8808L18.5 144L15.2287 84.8808C15.0928 82.4239 12.3979 80.9881 10.2829 82.2458L5.75523 84.938C2.26324 87.0145 -1.13843 82.1365 2.01698 79.5774L8.22245 74.5446C9.83918 73.2334 9.83919 70.7666 8.22245 69.4554L2.01699 64.4226C-1.13842 61.8635 2.26324 56.9855 5.75523 59.062L10.2829 61.7542C12.3979 63.0119 15.0928 61.5762 15.2287 59.1192L18.5 0Z" fill="#FF2E00"/>
</g>
</svg>
