<svg width="95" height="113" viewBox="0 0 95 113" fill="none" xmlns="http://www.w3.org/2000/svg">
<g style="mix-blend-mode:difference">
<path d="M47.5 0L49.0804 41.8339C49.1425 43.4784 51.3625 43.9461 52.0828 42.4663L69.5743 6.52901L54.5588 45.0006C53.9799 46.4836 55.708 47.7961 56.9813 46.8406L86.5917 24.6203L58.0846 50.5964C56.9641 51.6174 57.7831 53.4775 59.2928 53.3404L94.6537 50.1294L59.4498 57.2129C57.9858 57.5075 57.7081 59.4801 59.0339 60.1674L91.9133 77.2125L58.4875 64.0452C57.0429 63.4761 55.7288 65.1122 56.5961 66.4L78.9983 99.6651L54.8028 69.7393C53.7813 68.4759 51.747 69.3894 52.0127 70.9923L58.8675 112.344L49.0357 72.3648C48.641 70.7597 46.359 70.7597 45.9643 72.3648L36.1325 112.344L42.9873 70.9923C43.253 69.3894 41.2187 68.4759 40.1972 69.7393L16.0017 99.6651L38.4039 66.4C39.2712 65.1122 37.9571 63.4761 36.5125 64.0452L3.08673 77.2125L35.9661 60.1674C37.2919 59.4801 37.0142 57.5075 35.5502 57.2129L0.346329 50.1294L35.7072 53.3404C37.2169 53.4775 38.0359 51.6174 36.9154 50.5964L8.40827 24.6203L38.0187 46.8406C39.292 47.7961 41.0201 46.4836 40.4412 45.0006L25.4256 6.52901L42.9172 42.4663C43.6375 43.9461 45.8575 43.4784 45.9196 41.8339L47.5 0Z" fill="#FFE500"/>
</g>
</svg>
