<svg width="61" height="72" viewBox="0 0 61 72" fill="none" xmlns="http://www.w3.org/2000/svg">
<g style="mix-blend-mode:difference">
<path d="M27.2348 3.64112C27.5651 -0.368664 33.435 -0.368668 33.7652 3.64112L35.1437 20.3765C35.3383 22.7392 37.9001 24.1194 39.9803 22.9825L55.4349 14.5354C58.8761 12.6545 62.1154 17.3101 59.1557 19.8829L43.4595 33.5273C41.957 34.8334 41.957 37.1666 43.4595 38.4727L59.1557 52.1171C62.1154 54.6899 58.8761 59.3455 55.4349 57.4646L39.9803 49.0175C37.9001 47.8806 35.3383 49.2608 35.1437 51.6235L33.7652 68.3589C33.435 72.3687 27.5651 72.3687 27.2348 68.3589L25.8563 51.6235C25.6617 49.2608 23.0999 47.8806 21.0197 49.0175L5.56508 57.4646C2.12394 59.3455 -1.11538 54.6899 1.8443 52.1171L17.5405 38.4727C19.043 37.1666 19.043 34.8334 17.5405 33.5273L1.8443 19.8829C-1.11538 17.3101 2.12394 12.6545 5.56508 14.5354L21.0197 22.9825C23.0999 24.1194 25.6617 22.7392 25.8563 20.3765L27.2348 3.64112Z" fill="#DB00FF"/>
</g>
</svg>
