<svg width="37" height="42" viewBox="0 0 37 42" fill="none" xmlns="http://www.w3.org/2000/svg">
<g style="mix-blend-mode:difference">
<path d="M14.2492 4.38877C14.652 -0.860687 22.348 -0.860686 22.7508 4.38877V4.38877C22.9887 7.48871 26.3578 9.29968 29.0746 7.78798L29.6133 7.48824C34.5215 4.75716 39.1745 11.4409 34.9095 15.0959L32.438 17.2139C30.1159 19.2039 30.1159 22.7961 32.438 24.7861L34.9095 26.9041C39.1745 30.5591 34.5215 37.2428 29.6133 34.5117L29.0746 34.212C26.3578 32.7003 22.9887 34.5113 22.7508 37.6112V37.6112C22.348 42.8607 14.652 42.8607 14.2492 37.6112V37.6112C14.0113 34.5113 10.6422 32.7003 7.92541 34.212L7.38674 34.5118C2.47851 37.2428 -2.1745 30.5591 2.09054 26.9041L4.56203 24.7861C6.88413 22.7961 6.88413 19.2039 4.56203 17.2139L2.09054 15.0959C-2.1745 11.4409 2.4785 4.75715 7.38674 7.48824L7.92541 7.78797C10.6422 9.29968 14.0113 7.48871 14.2492 4.38877V4.38877Z" fill="#BDFF00"/>
</g>
</svg>
